<svg xmlns="http://www.w3.org/2000/svg" width="1200" height="627" viewBox="0 0 1200 627" role="img" aria-labelledby="title desc">
  <title id="title">Post 2 thumbnail - The First Scan</title>
  <desc id="desc">AI-assisted Azure IaC case study thumbnail for baseline scanning.</desc>
  <defs><linearGradient id="bg" x1="0" y1="0" x2="1" y2="1"><stop offset="0" stop-color="#09090b"/><stop offset="0.58" stop-color="#1e293b"/><stop offset="1" stop-color="#064e3b"/></linearGradient></defs>
  <rect width="1200" height="627" fill="url(#bg)"/>
  <g opacity="0.24" stroke="#34d399" stroke-width="2">
    <path d="M0 122 H1200 M0 226 H1200 M0 330 H1200 M0 434 H1200 M0 538 H1200"/>
    <path d="M150 0 V627 M318 0 V627 M486 0 V627 M654 0 V627 M822 0 V627 M990 0 V627"/>
  </g>
  <g transform="translate(724 126)">
    <circle cx="164" cy="164" r="150" fill="#020617" stroke="#34d399" stroke-width="5"/>
    <circle cx="164" cy="164" r="92" fill="none" stroke="#86efac" stroke-width="3" opacity="0.8"/>
    <circle cx="164" cy="164" r="34" fill="#34d399" opacity="0.32"/>
    <path d="M164 164 L282 106" stroke="#22d3ee" stroke-width="8" stroke-linecap="round"/>
    <circle cx="282" cy="106" r="10" fill="#22d3ee"/>
    <text x="164" y="354" text-anchor="middle" fill="#bbf7d0" font-family="Arial, sans-serif" font-size="28" font-weight="700">Baseline Signal</text>
  </g>
  <text x="76" y="94" fill="#86efac" font-family="Arial, sans-serif" font-size="30" font-weight="700">POST 02 / 07</text>
  <text x="76" y="188" fill="#ffffff" font-family="Arial, sans-serif" font-size="70" font-weight="800">THE FIRST SCAN</text>
  <text x="76" y="252" fill="#d1fae5" font-family="Arial, sans-serif" font-size="34" font-weight="600">Quiet findings. Useful baseline.</text>
  <text x="76" y="320" fill="#cbd5e1" font-family="Arial, sans-serif" font-size="28">Nmap + Nessus before the risk was introduced</text>
  <rect x="76" y="502" width="440" height="54" rx="27" fill="#052e2b" stroke="#34d399" stroke-width="2"/>
  <text x="296" y="538" text-anchor="middle" fill="#dcfce7" font-family="Arial, sans-serif" font-size="24" font-weight="700">Normal matters</text>
</svg>
